<svg id="Capa_1" enable-background="new 0 0 512 512" height="512" viewBox="0 0 512 512" width="512" xmlns="http://www.w3.org/2000/svg"><g><path d="m509.736 87.386h-507.472c-1.25 0-2.264 1.014-2.264 2.264v308.018c0 1.25 1.014 2.264 2.264 2.264h171.736c.6 0 1.176.238 1.601.663l78.798 94.251c.884.884 2.318.884 3.202 0l78.798-94.251c.425-.425 1.001-.663 1.601-.663h171.736c1.25 0 2.264-1.014 2.264-2.264v-308.018c0-1.25-1.014-2.264-2.264-2.264z" fill="#ffd064"/><path d="m509.736 87.386h-38.948v230.237c0 34.078-27.625 61.703-61.703 61.703h-409.085v18.342c0 1.25 1.014 2.264 2.264 2.264h171.736c.6 0 1.176.238 1.601.663l78.798 94.251c.884.884 2.318.884 3.202 0l78.798-94.251c.425-.425 1.001-.663 1.601-.663h171.736c1.25 0 2.264-1.014 2.264-2.264v-308.018c0-1.25-1.014-2.264-2.264-2.264z" fill="#ffc250"/><g fill="#f9f6f9"><path d="m169.619 300.536h-111.718c-.573 0-1.037-.464-1.037-1.037v-26.374c0-.573.464-1.037 1.037-1.037h111.717c.573 0 1.037.464 1.037 1.037v26.374c.001.572-.463 1.037-1.036 1.037z"/><path d="m297.635 300.536h-97.493c-.573 0-1.037-.464-1.037-1.037v-26.374c0-.573.464-1.037 1.037-1.037h97.493c.573 0 1.037.464 1.037 1.037v26.374c0 .572-.464 1.037-1.037 1.037z"/><path d="m56.864 328.983h398.272v28.448h-398.272z"/></g><path d="m142.208 17.643v111.487c0 .636.516 1.152 1.152 1.152h40.368c.636 0 1.152.516 1.152 1.152v27.736c0 7.613-6.171 13.784-13.784 13.784h-27.736c-.636 0-1.152.516-1.152 1.152v40.803c0 .636.516 1.152 1.152 1.152h41.52c23.567 0 42.672-19.105 42.672-42.672v-155.746c0-.636-.516-1.152-1.152-1.152h-83.04c-.636-.001-1.152.515-1.152 1.152z" fill="#61a2f9"/><path d="m284.448 17.643v111.487c0 .636.516 1.152 1.152 1.152h40.368c.636 0 1.152.516 1.152 1.152v27.736c0 7.613-6.171 13.784-13.784 13.784h-27.736c-.636 0-1.152.516-1.152 1.152v40.803c0 .636.516 1.152 1.152 1.152h41.52c23.567 0 42.672-19.105 42.672-42.672v-155.746c0-.636-.516-1.152-1.152-1.152h-83.04c-.636-.001-1.152.515-1.152 1.152z" fill="#61a2f9"/><path d="m226.4 16.49h-40.06v136.292c0 23.567-19.105 42.672-42.672 42.672h-1.46v19.454c0 .636.516 1.152 1.152 1.152h41.52c23.567 0 42.672-19.105 42.672-42.672v-155.745c0-.637-.516-1.153-1.152-1.153z" fill="#5490f9"/><path d="m368.64 16.49h-40.06v136.292c0 23.567-19.105 42.672-42.672 42.672h-1.46v19.454c0 .636.516 1.152 1.152 1.152h41.52c23.567 0 42.672-19.105 42.672-42.672v-155.745c0-.637-.516-1.153-1.152-1.153z" fill="#5490f9"/></g></svg>