<svg id="Layer_1" enable-background="new 0 0 100 100" viewBox="0 0 100 100" xmlns="http://www.w3.org/2000/svg" xmlns:xlink="http://www.w3.org/1999/xlink"><linearGradient id="lg1"><stop offset="0" stop-color="#97e0ff"/><stop offset="1" stop-color="#1075ff"/></linearGradient><linearGradient id="SVGID_1_" gradientUnits="userSpaceOnUse" x1="15.188" x2="114.809" xlink:href="#lg1" y1="-22.991" y2="87.994"/><linearGradient id="SVGID_00000084521045882727383120000015559599050084423869_" gradientUnits="userSpaceOnUse" x1="-13.688" x2="85.933" xlink:href="#lg1" y1="2.929" y2="113.913"/><path d="m54.75 61.7309799v-2.3699951c0-21.9786606 16.2715454-39.8894348 37.5211639-42.4388428 2.7931672-.3351097 5.2288361 1.917471 5.2288361 4.7306748v.0000095c0 2.4273148-1.8343735 4.4202805-4.2426605 4.7236137-7.4862671.9429264-14.1913986 4.3405972-19.203804 9.2676563-1.7802734 1.7499619-.5009689 4.7270927 1.9953613 4.7170334.0236969-.0000954.0474014-.000145.0710983-.000145 12.2492294 0 21.9682159 10.0996895 21.3522568 22.4834023-.538559 10.8274422-9.4114075 19.7002907-20.2388535 20.2388496-12.3837051.6159593-22.4833984-9.1030272-22.4833984-21.3522567z" fill="url(#SVGID_1_)"/><path d="m2.5000021 61.2574081.000001-1.8964233c0-21.9786606 16.2715454-39.8894348 37.5211601-42.4388428 2.7931755-.3351097 5.2288368 1.917471 5.2288368 4.7306748v.0003147c0 2.4272079-1.8342209 4.4199734-4.2423592 4.7236252-7.481739.9434032-14.1888084 4.3410473-19.1987572 9.2678051-1.779623 1.7500687-.500473 4.7271957 1.9954643 4.7165833.025219-.0001068.0504398-.0001602.0756588-.0001602 11.8699932 0 21.3699932 9.5 21.3699932 21.3699951 0 12.0883865-9.8361855 21.7125397-21.996748 21.3711853-11.6399678-.3267442-20.7532557-10.200203-20.7532498-21.8447572z" fill="url(#SVGID_00000084521045882727383120000015559599050084423869_)"/></svg>